<svg xmlns="http://www.w3.org/2000/svg" viewBox="0 0 32 32" width="32" height="32">
	<style>
		tspan { white-space:pre }
		.shp0 { fill: #17daa3 } 
	</style>
	<g id="Our Services">
		<g id="Design">
			<g id="Design">
				<path id="Design" class="shp0" d="M31.65 8.65L23.35 0.35C23.11 0.11 22.81 0 22.5 0C22.19 0 21.89 0.11 21.65 0.35L0 22L0 32L10 32L31.65 10.35C31.89 10.11 32 9.8 32 9.5C32 9.19 31.89 8.88 31.65 8.65ZM4.56 21.44L18.44 7.56L24.44 13.56L10.56 27.44L4.56 21.44ZM3 24.12L7.88 29L3 29L3 24.12ZM26.56 11.44L20.56 5.44L22.5 3.5L28.5 9.5L26.56 11.44Z" />
			</g>
		</g>
	</g>
</svg>